# xmcd
#
# Track frame offsets:
#	150
#	16195
#	32377
#	50219
#	72855
#	94417
#	117871
#	136136
#	156857
#	172202
#	190902
#	207761
#
# Disc length: 3085 seconds
#
# Revision: 0
# Processed by: cddbd v1.5.1PL0 Copyright (c) Steve Scherf et al.
# Submitted via: dBpowerAMP V4.0
#
DISCID=a40c0b0c
DTITLE=Charlie Wilson - Charlie, Last Name Wilson 
DYEAR=2005
DGENRE=R&B
TTITLE0=Magic 
TTITLE1=Charlie, Last Name Wilson
TTITLE2=So Hot (feat. Twista)
TTITLE3=Let's Chill
TTITLE4=No Words
TTITLE5=Floatin' (feat. Will.I.Am and Justin Timberlake
TTITLE6=Asking Questions
TTITLE7=What If I'm The One
TTITLE8=You Got Nerve (feat. Snoop Dogg)
TTITLE9=Thru It All
TTITLE10=My Guarantee
TTITLE11=Cry No More
EXTD=
EXTT0=
EXTT1=
EXTT2=
EXTT3=
EXTT4=
EXTT5=
EXTT6=
EXTT7=
EXTT8=
EXTT9=
EXTT10=
EXTT11=
PLAYORDER=
